<?xml version="1.0" standalone="no"?>
<!DOCTYPE svg PUBLIC "-//W3C//DTD SVG 20010904//EN"
 "http://www.w3.org/TR/2001/REC-SVG-20010904/DTD/svg10.dtd">
<svg version="1.0" xmlns="http://www.w3.org/2000/svg"
 width="4096.000000pt" height="4096.000000pt" viewBox="0 0 4096.000000 4096.000000"
 preserveAspectRatio="xMidYMid meet">
<metadata>
Created by potrace 1.14, written by Peter Selinger 2001-2017
</metadata>
<g transform="translate(0.000000,4096.000000) scale(0.100000,-0.100000)"
fill="#000000" stroke="none">
<path d="M13379 37256 c-2 -2 -49 -6 -104 -9 -55 -4 -125 -11 -155 -16 -30 -6
-72 -13 -94 -16 -123 -18 -453 -106 -541 -145 -22 -10 -56 -23 -75 -30 -19 -8
-73 -31 -120 -53 -47 -22 -87 -40 -90 -40 -5 -1 -108 -58 -175 -97 -22 -13
-49 -28 -60 -34 -11 -6 -53 -33 -93 -61 -40 -27 -81 -54 -90 -60 -18 -10 -103
-75 -112 -85 -3 -3 -21 -17 -40 -30 -19 -13 -53 -41 -75 -61 -22 -20 -53 -47
-68 -60 -62 -52 -185 -178 -179 -183 3 -3 1 -6 -5 -6 -12 0 -103 -89 -103
-101 0 -4 -6 -12 -12 -16 -14 -9 -94 -102 -148 -173 -19 -25 -40 -49 -47 -53
-7 -4 -13 -13 -13 -18 0 -11 -60 -92 -72 -97 -5 -2 -8 -8 -8 -12 0 -5 -34 -59
-75 -119 -41 -61 -75 -115 -75 -120 0 -5 -6 -16 -12 -23 -7 -7 -22 -29 -32
-48 -11 -19 -22 -37 -25 -40 -3 -3 -14 -21 -23 -40 -10 -19 -22 -42 -27 -50
-5 -8 -19 -35 -31 -60 -13 -25 -30 -53 -38 -62 -8 -10 -12 -18 -7 -18 4 0 1
-7 -6 -16 -7 -9 -14 -21 -15 -28 -1 -6 -24 -56 -50 -111 -53 -109 -94 -204
-94 -221 0 -5 -5 -15 -12 -22 -6 -6 -13 -21 -15 -33 -2 -11 -10 -28 -19 -36
-11 -12 -12 -18 -4 -23 8 -5 7 -9 -5 -14 -9 -3 -14 -9 -12 -14 3 -4 -1 -22 -8
-40 -8 -18 -14 -33 -14 -35 0 -1 -11 -31 -24 -67 -40 -106 -77 -223 -72 -228
3 -3 -1 -12 -7 -20 -7 -8 -13 -19 -14 -26 -1 -6 -9 -37 -19 -70 -9 -32 -19
-66 -20 -75 -2 -9 -4 -16 -5 -16 -1 0 -3 -7 -5 -15 -1 -8 -8 -35 -16 -60 -16
-58 -17 -61 -22 -85 -3 -11 -12 -51 -21 -88 -9 -38 -14 -72 -11 -77 3 -5 1
-10 -5 -12 -5 -1 -10 -18 -12 -36 -1 -19 -6 -36 -10 -38 -4 -2 -5 -13 -3 -24
2 -11 1 -20 -3 -20 -4 0 -8 -8 -8 -17 -1 -22 -10 -79 -25 -150 -6 -29 -8 -57
-5 -62 4 -5 2 -11 -3 -13 -6 -1 -13 -25 -16 -53 -3 -27 -7 -63 -9 -80 -3 -16
-8 -55 -11 -85 -4 -30 -8 -57 -10 -60 -3 -5 -10 -70 -20 -175 -3 -27 -7 -64
-9 -80 -2 -17 -7 -68 -11 -115 -3 -47 -8 -112 -11 -145 -3 -33 -7 -127 -9
-209 -2 -82 -7 -151 -10 -154 -2 -3 1 -12 8 -20 9 -12 9 -14 0 -9 -9 6 -11 -3
-8 -33 2 -22 7 -45 10 -50 3 -6 2 -10 -3 -10 -8 0 -9 -50 -2 -85 2 -6 1 -14 0
-20 -6 -25 -4 -41 5 -47 6 -5 6 -8 -1 -8 -11 0 -11 -77 0 -87 3 -3 1 -16 -4
-29 -5 -13 -6 -24 -2 -24 4 0 8 -46 8 -103 2 -149 8 -238 16 -243 3 -2 3 -18
-2 -34 -5 -17 -6 -30 -2 -30 4 0 8 -24 8 -53 2 -99 8 -142 18 -149 7 -5 6 -8
-2 -8 -7 0 -11 -4 -8 -9 5 -7 9 -37 21 -148 2 -18 6 -37 10 -43 3 -5 1 -10 -5
-10 -6 0 -8 -5 -5 -11 4 -5 8 -22 10 -37 2 -15 7 -49 11 -77 5 -27 9 -63 10
-80 1 -16 3 -33 4 -37 5 -17 7 -25 14 -88 5 -36 10 -74 13 -85 2 -11 6 -29 7
-40 2 -11 4 -20 6 -20 1 0 3 -11 4 -25 10 -80 19 -136 25 -140 3 -3 7 -18 7
-35 1 -16 4 -41 7 -55 12 -52 19 -86 20 -102 1 -10 4 -18 7 -18 3 0 7 -15 8
-32 2 -18 7 -49 12 -68 5 -19 12 -48 15 -65 3 -16 14 -66 25 -110 12 -44 23
-91 26 -105 3 -14 7 -32 9 -40 2 -8 4 -15 5 -15 1 0 3 -9 5 -19 2 -11 6 -29 9
-40 3 -12 6 -24 6 -28 0 -4 7 -26 15 -48 8 -22 12 -40 9 -40 -2 0 2 -16 10
-35 8 -19 12 -35 9 -35 -3 0 2 -11 11 -25 12 -18 13 -25 4 -25 -8 0 -9 -3 -3
-8 6 -4 12 -16 13 -27 2 -11 8 -24 13 -29 5 -6 9 -19 9 -30 0 -20 21 -87 30
-96 3 -3 6 -14 8 -25 4 -33 8 -44 15 -51 4 -4 7 -17 7 -29 0 -12 3 -25 7 -29
4 -3 8 -16 10 -28 2 -12 8 -27 13 -33 5 -7 7 -15 3 -18 -3 -4 -1 -7 6 -7 7 0
9 -4 6 -10 -3 -5 -3 -16 2 -22 4 -7 9 -22 10 -32 2 -11 8 -25 14 -33 6 -7 8
-13 4 -13 -4 0 -3 -6 2 -12 6 -7 19 -41 29 -75 10 -35 22 -63 27 -63 4 0 7
-11 7 -23 0 -13 3 -27 7 -31 4 -3 8 -14 9 -23 2 -10 7 -26 13 -38 5 -11 20
-45 32 -75 12 -30 30 -74 40 -97 11 -24 19 -49 19 -57 0 -8 5 -18 10 -21 6 -3
10 -15 10 -26 0 -10 5 -19 10 -19 6 0 9 -3 8 -7 -2 -10 22 -68 74 -180 12 -27
22 -50 23 -53 4 -17 64 -143 160 -334 124 -246 136 -268 150 -278 6 -4 6 -8 2
-8 -8 0 -5 -5 39 -75 14 -22 27 -48 31 -57 3 -10 10 -18 15 -18 5 0 7 -4 4 -9
-4 -5 -3 -11 1 -13 5 -1 19 -24 32 -50 13 -27 29 -48 34 -48 6 0 8 -3 4 -6 -4
-5 26 -57 110 -189 7 -11 27 -44 44 -72 17 -29 35 -53 40 -53 5 0 9 -4 9 -9 0
-11 102 -165 113 -169 4 -2 7 -9 7 -15 0 -7 10 -24 23 -39 12 -15 38 -49 57
-77 19 -28 38 -50 43 -51 4 0 7 -5 7 -10 0 -9 57 -89 93 -130 7 -8 35 -44 63
-80 27 -36 54 -71 61 -78 7 -7 29 -34 50 -60 21 -25 52 -61 70 -79 18 -18 30
-33 27 -33 -3 0 7 -12 21 -27 14 -15 25 -31 25 -35 0 -5 7 -8 15 -8 8 0 15 -5
15 -11 0 -28 524 -549 552 -549 5 0 7 -4 4 -8 -3 -5 8 -16 24 -25 15 -10 49
-37 75 -62 25 -25 49 -45 53 -45 4 0 26 -18 50 -40 24 -22 47 -40 52 -40 6 0
15 -9 22 -20 7 -11 17 -20 23 -20 6 0 25 -13 43 -29 17 -17 32 -27 32 -23 0 4
4 2 8 -4 6 -9 99 -76 242 -174 47 -32 199 -124 290 -175 101 -57 375 -195 395
-199 6 -2 26 -9 45 -18 254 -112 546 -200 835 -252 17 -3 51 -8 76 -11 25 -3
56 -8 70 -10 132 -26 753 -27 798 -1 3 2 29 6 56 10 65 8 105 14 130 20 11 2
63 14 115 26 52 11 115 28 140 37 25 8 50 16 55 17 28 7 132 40 145 46 16 8
41 18 110 45 57 22 312 148 365 181 22 13 49 28 60 34 47 21 274 183 326 233
11 9 22 17 25 17 4 0 38 28 77 63 90 78 90 78 175 162 103 100 121 119 207
220 42 50 88 102 101 118 13 15 21 27 18 27 -4 0 2 8 12 18 11 9 31 33 44 52
13 19 34 46 47 59 12 13 20 27 17 32 -3 5 -1 9 3 9 5 0 24 25 42 55 18 30 37
55 42 55 4 0 11 10 15 23 4 12 9 24 13 27 10 8 31 44 37 63 4 9 10 17 15 17 5
0 9 7 9 15 0 8 3 15 8 15 8 0 38 61 34 73 -1 4 2 7 8 7 10 0 45 60 42 73 -1 4
5 10 13 13 8 4 15 12 15 20 0 7 14 36 30 64 17 28 30 58 30 66 0 8 4 13 9 10
5 -3 11 1 15 9 3 8 0 15 -7 15 -9 0 -9 2 0 8 12 8 125 235 129 260 1 8 14 38
28 68 14 30 26 61 26 69 0 7 4 16 8 19 5 3 24 49 42 103 18 54 37 104 43 111
5 6 7 12 4 12 -3 0 0 12 8 27 8 15 12 30 9 35 -3 4 -1 8 3 8 5 0 9 8 10 18 1
9 7 31 14 47 7 17 13 37 14 45 1 8 5 23 9 32 4 9 9 22 10 30 1 7 13 45 25 85
13 40 20 77 16 83 -3 5 -2 10 3 10 7 0 49 152 78 283 3 12 8 33 11 47 3 14 6
32 7 40 1 9 5 21 10 28 4 6 5 12 2 12 -3 0 1 20 8 45 9 29 10 45 4 45 -7 0 -7
4 0 13 9 11 16 36 27 112 8 52 14 78 20 83 2 3 0 11 -6 19 -7 8 -8 13 -1 13 5
0 13 28 17 63 9 71 11 86 20 142 8 50 11 73 19 155 4 36 9 83 12 105 2 22 6
67 9 100 2 33 7 87 10 120 2 33 7 106 9 162 2 56 7 107 10 112 4 5 2 13 -4 16
-7 4 -8 11 -1 18 15 19 15 21 2 45 -6 12 -8 22 -3 22 12 0 9 493 -3 502 -6 5
-5 8 3 8 7 0 11 4 8 9 -3 4 -8 64 -11 132 -3 68 -8 153 -10 189 -3 36 -7 97
-10 135 -5 73 -10 125 -20 210 -4 28 -7 57 -7 65 0 8 -2 22 -5 30 -2 8 -6 42
-8 75 -2 33 -6 69 -9 81 -7 35 -19 128 -18 147 0 9 -2 17 -6 17 -4 0 -7 12 -6
27 0 14 -3 45 -8 67 -4 23 -10 55 -12 71 -6 41 -15 94 -23 130 -4 17 -7 37 -8
45 -1 8 -5 35 -10 60 -5 25 -8 48 -7 53 1 4 -3 7 -9 7 -5 0 -8 3 -5 8 2 4 0
27 -5 52 -5 25 -12 63 -15 85 -4 22 -9 42 -13 45 -6 5 -7 13 -13 68 -1 12 -6
22 -11 22 -4 0 -5 4 -2 10 3 5 0 29 -6 52 -7 24 -14 50 -15 58 -4 22 -45 183
-51 200 -3 8 -7 22 -9 30 -6 34 -10 46 -17 58 -5 6 -6 12 -3 12 3 0 -4 25 -14
55 -10 30 -17 55 -15 55 2 0 -3 17 -12 38 -8 20 -15 39 -14 42 0 3 -5 23 -11
45 -6 22 -12 43 -14 48 -1 4 -3 9 -4 12 -1 3 -3 8 -4 13 -1 4 -13 41 -26 82
-13 41 -25 78 -26 83 -1 4 -3 9 -4 12 -1 3 -3 8 -5 13 -2 8 -4 15 -29 87 -10
28 -25 73 -34 100 -9 28 -20 53 -25 56 -5 3 -8 9 -8 13 2 13 -23 96 -29 96 -3
0 -6 8 -7 18 -1 10 -13 43 -27 74 -14 31 -26 59 -26 62 0 2 -5 17 -12 33 -6
15 -12 34 -14 42 -1 8 -9 18 -16 22 -7 5 -10 9 -6 9 8 0 -16 67 -53 146 -10
24 -19 48 -19 53 0 6 -4 11 -10 11 -5 0 -9 3 -8 8 1 7 -9 33 -41 105 -10 23
-22 52 -25 65 -4 12 -12 22 -17 22 -5 0 -9 3 -8 8 2 15 -14 52 -23 52 -5 0 -7
4 -3 9 3 5 -2 16 -10 25 -9 8 -16 18 -15 21 0 3 -7 21 -15 41 -8 20 -15 40
-15 45 0 5 -5 9 -12 9 -6 0 -8 3 -5 6 7 7 -22 64 -38 76 -5 4 -6 8 -1 8 5 0 4
6 -2 13 -6 6 -31 53 -57 102 -26 50 -52 96 -57 103 -6 6 -8 12 -5 12 4 0 -5
16 -18 36 -13 19 -27 44 -30 55 -4 10 -11 19 -16 19 -5 0 -9 9 -9 20 0 10 -8
24 -17 29 -10 6 -15 11 -10 11 4 0 -3 17 -16 38 -12 20 -29 49 -36 65 -8 15
-18 27 -23 27 -5 0 -7 4 -4 9 3 5 -5 20 -19 35 -13 14 -22 26 -19 26 7 0 -36
70 -53 88 -7 7 -13 17 -13 22 0 11 -62 104 -72 108 -4 2 -8 8 -8 13 0 5 -16
32 -35 59 -19 27 -35 53 -35 58 0 4 -9 14 -19 22 -11 7 -18 17 -16 20 2 4 -5
16 -15 28 -11 12 -20 25 -20 29 0 5 -9 15 -20 23 -11 8 -20 18 -20 22 0 12
-140 202 -151 206 -5 2 -9 8 -9 13 0 6 -11 21 -25 35 -14 14 -25 28 -25 32 0
4 -13 21 -28 39 -46 53 -62 73 -62 77 0 2 -15 20 -32 39 -18 19 -47 52 -65 73
-17 21 -43 53 -57 69 -14 17 -26 33 -26 38 0 4 -7 7 -15 7 -8 0 -15 4 -15 9 0
13 -39 56 -192 214 -76 78 -138 145 -138 149 0 5 -4 8 -9 8 -5 0 -42 31 -82
69 -136 127 -294 262 -439 373 -93 72 -303 223 -338 243 -65 38 -194 120 -198
127 -3 4 -12 8 -19 8 -8 0 -23 7 -32 15 -10 8 -22 15 -28 16 -5 0 -17 6 -25
13 -16 14 -333 176 -344 176 -3 0 -25 9 -49 19 -287 132 -725 255 -1017 285
-30 4 -71 9 -90 12 -39 6 -455 15 -461 10z"/>
<path d="M27189 37256 c-2 -2 -44 -6 -94 -9 -184 -12 -429 -57 -660 -122 -159
-45 -325 -103 -387 -136 -10 -5 -22 -9 -28 -9 -17 0 -329 -149 -435 -207 -242
-134 -609 -378 -693 -460 -7 -7 -16 -13 -20 -13 -4 0 -20 -13 -37 -28 -16 -15
-42 -37 -57 -48 -23 -18 -54 -45 -158 -134 -122 -105 -326 -305 -460 -450
-134 -144 -143 -154 -185 -204 -21 -26 -50 -59 -63 -74 -50 -57 -59 -68 -88
-106 -16 -22 -41 -54 -56 -70 -16 -17 -28 -34 -28 -38 0 -4 -14 -22 -31 -40
-17 -18 -46 -56 -65 -85 -19 -28 -41 -57 -49 -63 -8 -7 -15 -18 -15 -25 0 -8
-3 -15 -8 -17 -12 -5 -72 -85 -72 -96 0 -6 -3 -12 -7 -14 -11 -5 -73 -97 -73
-108 0 -6 -4 -10 -10 -10 -5 0 -10 -6 -10 -14 0 -8 -3 -16 -7 -18 -12 -5 -103
-143 -103 -156 0 -7 -4 -12 -8 -12 -5 0 -17 -17 -28 -37 -10 -20 -26 -45 -33
-55 -19 -23 -66 -102 -88 -150 -10 -21 -21 -38 -25 -38 -5 0 -8 -4 -8 -9 0 -5
-22 -47 -50 -94 -27 -47 -50 -88 -50 -91 0 -4 -11 -24 -24 -45 -14 -21 -22
-42 -19 -45 4 -3 1 -6 -6 -6 -7 0 -10 -4 -7 -9 4 -5 2 -11 -3 -13 -12 -5 -190
-365 -183 -372 3 -3 0 -6 -6 -6 -7 0 -11 -3 -10 -7 1 -5 -3 -17 -9 -28 -6 -12
-37 -79 -68 -150 -31 -72 -62 -143 -70 -160 -11 -26 -25 -60 -30 -75 -1 -3 -6
-16 -12 -30 -47 -111 -137 -349 -147 -390 -3 -8 -12 -33 -21 -54 -9 -22 -19
-47 -21 -55 -2 -9 -22 -70 -44 -136 -22 -66 -42 -129 -44 -140 -3 -11 -5 -21
-7 -22 -1 -2 -2 -6 -4 -10 -1 -5 -4 -15 -8 -23 -5 -13 -29 -96 -57 -195 -30
-107 -65 -245 -86 -333 -13 -57 -26 -107 -28 -111 -3 -4 -8 -22 -11 -39 -3
-18 -12 -60 -20 -94 -8 -35 -16 -74 -19 -88 -2 -14 -11 -56 -19 -95 -9 -38
-18 -86 -21 -105 -3 -19 -7 -44 -10 -55 -2 -11 -7 -40 -12 -65 -4 -25 -8 -47
-9 -50 -1 -3 -5 -30 -9 -60 -5 -30 -10 -62 -11 -70 -4 -23 -14 -90 -20 -135
-3 -23 -7 -52 -10 -65 -2 -13 -7 -46 -10 -74 -3 -28 -7 -67 -10 -86 -2 -19 -7
-60 -10 -90 -3 -30 -8 -73 -10 -95 -10 -83 -24 -271 -29 -381 -2 -34 -6 -65
-8 -70 -7 -12 -2 -873 6 -949 3 -33 8 -94 11 -135 3 -41 8 -97 10 -125 3 -27
7 -79 9 -115 3 -36 7 -77 10 -90 3 -14 8 -45 10 -70 2 -25 7 -56 10 -70 5 -23
10 -57 22 -155 3 -22 7 -51 10 -65 3 -14 12 -63 20 -110 9 -47 22 -111 29
-143 7 -31 14 -60 14 -62 4 -30 55 -250 70 -305 6 -19 19 -69 29 -110 11 -41
24 -86 29 -100 6 -14 11 -27 11 -30 0 -3 3 -12 6 -20 27 -85 48 -153 50 -163
2 -7 8 -25 14 -40 7 -15 15 -40 18 -55 4 -15 10 -31 14 -37 4 -5 13 -28 20
-50 6 -22 18 -53 25 -70 21 -48 66 -159 69 -170 6 -21 109 -244 155 -335 87
-170 246 -444 289 -496 5 -5 22 -30 38 -54 140 -215 400 -511 609 -695 37 -33
73 -65 79 -70 9 -8 97 -77 151 -118 5 -4 24 -19 40 -32 17 -14 35 -25 42 -25
6 0 13 -3 15 -7 2 -5 23 -21 48 -38 25 -16 47 -32 50 -35 3 -3 16 -11 29 -18
42 -24 90 -51 129 -73 41 -24 154 -82 162 -84 3 -1 32 -14 65 -29 79 -37 122
-56 128 -56 2 0 21 -7 41 -15 20 -8 38 -15 41 -15 3 0 19 -7 35 -15 17 -9 30
-13 30 -10 0 2 24 -4 53 -14 28 -11 72 -25 97 -32 25 -7 50 -14 55 -15 6 -2
21 -5 35 -8 14 -3 36 -8 50 -11 14 -4 36 -8 50 -11 14 -3 33 -7 42 -10 21 -6
45 -10 108 -18 25 -3 56 -8 69 -11 141 -27 640 -27 811 0 14 2 43 7 65 10 22
3 67 10 100 16 33 7 69 13 80 15 17 3 103 23 167 38 136 34 446 137 485 162
12 8 27 14 33 14 24 0 352 158 490 236 107 60 305 186 308 195 2 5 8 7 13 3 5
-3 9 0 9 5 0 6 7 11 15 11 7 0 18 6 22 13 4 6 40 33 79 60 39 26 82 56 95 67
13 11 29 23 34 28 6 4 26 19 45 32 19 14 37 27 40 30 3 3 26 22 52 43 26 21
53 44 60 50 7 7 23 20 35 28 12 8 47 38 76 65 30 27 89 81 132 119 95 87 285
277 385 385 111 121 112 122 155 174 40 49 70 84 103 121 9 11 33 40 52 65 48
62 63 80 78 95 6 8 12 18 12 24 0 6 4 11 9 11 4 0 21 19 37 43 16 23 34 47 39
54 26 32 33 41 65 88 19 28 38 55 42 60 5 6 20 24 33 40 14 17 25 36 25 43 0
6 4 12 8 12 5 0 15 12 23 28 8 15 17 29 20 32 13 12 89 130 89 139 0 6 3 11 8
11 4 0 16 17 27 38 11 20 22 39 25 42 14 12 70 108 70 118 0 7 4 12 8 12 5 0
19 19 31 43 12 23 40 71 61 107 21 36 39 71 39 78 1 6 6 12 11 12 6 0 10 7 10
15 0 7 6 18 14 22 8 4 15 12 14 16 0 4 22 49 48 100 27 51 47 95 46 100 -1 4
2 7 7 7 5 0 15 16 22 35 7 19 17 35 21 35 4 0 8 5 8 11 0 6 16 42 35 80 19 38
31 69 27 69 -4 0 -2 4 3 8 6 4 42 75 79 157 38 83 82 178 97 213 16 34 29 68
29 76 0 7 7 19 15 26 9 7 13 15 11 18 -3 2 1 17 10 33 8 16 14 31 14 34 0 3 7
22 16 43 8 20 25 62 36 92 12 30 25 66 31 80 6 14 11 30 12 35 2 6 12 34 24
63 11 28 17 52 13 52 -4 0 -2 4 3 8 9 6 72 176 79 214 2 7 9 27 16 43 7 17 14
39 15 50 2 11 15 54 30 95 14 41 33 102 41 135 9 33 21 63 27 67 9 6 9 8 0 8
-9 0 -8 9 2 34 8 18 17 48 20 66 3 18 10 41 15 50 5 10 6 20 3 24 -3 3 -2 6 4
6 6 0 10 6 10 13 -2 20 24 131 34 143 5 6 7 13 4 16 -3 2 1 26 9 51 8 26 12
47 10 47 -2 0 3 18 11 40 8 22 12 40 8 40 -3 0 0 6 6 13 6 8 9 16 6 18 -2 3 1
22 6 44 5 22 12 54 15 70 3 17 12 54 19 84 8 30 12 58 9 63 -3 4 -2 8 3 8 4 0
9 21 11 48 2 26 7 49 13 50 5 2 7 7 4 12 -3 4 0 34 7 66 6 33 11 69 11 82 1
12 3 22 7 22 3 0 6 12 7 28 1 15 5 43 8 62 3 19 7 51 10 70 8 71 17 136 25
180 5 24 6 48 4 52 -3 5 -2 8 3 8 4 0 8 21 8 48 -1 26 1 51 4 56 2 5 6 30 8
55 1 25 5 64 8 86 3 22 7 72 10 110 2 39 7 102 10 140 4 39 7 97 8 130 1 33 7
63 12 67 6 5 5 8 -3 8 -7 0 -11 4 -8 9 3 4 7 60 8 125 2 64 7 116 11 116 5 0
5 5 1 11 -10 17 -12 109 -2 109 5 0 6 5 2 11 -10 17 -12 109 -2 109 5 0 6 5 2
11 -4 7 -8 75 -10 153 -3 175 -12 335 -19 346 -3 5 -1 12 5 15 7 4 8 11 2 18
-5 7 -10 35 -11 62 -2 57 -9 150 -11 150 -1 0 -4 25 -6 55 -3 30 -9 68 -14 83
-7 20 -6 26 2 21 7 -4 8 -3 4 4 -4 6 -9 31 -11 54 -2 24 -4 43 -5 43 -1 0 -4
14 -6 30 -2 17 -5 48 -9 70 -3 22 -6 54 -8 70 -2 17 -6 36 -10 41 -3 6 -7 29
-8 52 -2 23 -5 42 -8 42 -4 0 -6 10 -7 23 0 21 -8 65 -19 117 -3 14 -7 39 -10
55 -2 17 -6 40 -9 53 -11 42 -17 67 -21 87 -3 11 -7 31 -10 45 -4 14 -8 34
-10 45 -3 11 -7 29 -9 40 -3 11 -19 72 -36 135 -17 63 -33 126 -36 139 -3 13
-9 32 -15 43 -5 10 -7 23 -4 28 3 6 1 10 -6 10 -7 0 -10 3 -6 6 3 4 0 19 -9
35 -8 16 -14 30 -13 31 1 2 -5 23 -12 48 -7 25 -14 50 -15 55 -1 6 -12 35 -24
65 -42 108 -48 128 -43 134 4 3 0 6 -7 6 -7 0 -10 3 -7 7 4 3 2 12 -5 20 -6 7
-8 16 -4 20 3 3 -1 15 -11 25 -9 10 -13 18 -10 18 4 0 -2 16 -13 36 -11 19
-15 32 -8 28 7 -5 3 5 -10 20 -12 16 -22 35 -22 42 0 8 -5 24 -12 37 -24 47
-28 57 -28 72 0 8 -4 15 -9 15 -5 0 -13 10 -17 23 -8 27 -115 250 -124 257 -3
3 -21 37 -40 75 -19 39 -47 89 -62 111 -16 23 -28 47 -28 53 0 6 -4 11 -10 11
-5 0 -12 11 -16 25 -3 14 -10 25 -15 25 -5 0 -9 5 -9 11 0 6 -11 25 -25 43
-14 18 -25 38 -25 44 0 7 -4 12 -8 12 -4 0 -16 15 -27 33 -20 34 -115 169
-125 177 -4 3 -33 40 -64 83 -32 42 -62 77 -67 77 -5 0 -9 5 -9 11 0 27 -369
395 -480 479 -18 14 -38 30 -44 35 -11 10 -163 121 -222 162 -105 72 -418 241
-436 235 -5 -1 -8 3 -8 8 0 6 -7 10 -15 10 -8 0 -23 4 -33 9 -14 8 -37 18 -62
26 -9 3 -64 25 -100 40 -36 15 -111 35 -120 33 -3 -1 -15 4 -28 11 -24 13
-144 46 -202 56 -19 3 -48 10 -65 14 -31 10 -213 38 -300 47 -60 6 -461 14
-466 10z"/>
<path d="M3055 29734 c-16 -2 -77 -9 -135 -15 -140 -15 -151 -16 -180 -23 -14
-3 -36 -8 -50 -10 -66 -12 -136 -27 -193 -42 -34 -9 -70 -18 -79 -19 -34 -7
-314 -103 -363 -125 -233 -103 -470 -239 -623 -356 -45 -35 -85 -64 -88 -64
-3 0 -11 -6 -18 -12 -7 -7 -44 -40 -81 -73 -145 -127 -305 -295 -402 -423 -24
-31 -57 -73 -73 -92 -16 -19 -30 -41 -30 -47 0 -7 -4 -13 -10 -13 -5 0 -10 -7
-10 -15 0 -8 -4 -15 -8 -15 -7 0 -24 -26 -95 -145 -7 -11 -15 -22 -18 -25 -21
-17 -209 -387 -201 -394 3 -3 0 -6 -6 -6 -7 0 -12 -9 -12 -20 0 -11 -4 -20
-10 -20 -5 0 -9 -3 -9 -7 1 -5 0 -11 -1 -15 -1 -5 -3 -11 -4 -15 -1 -5 -10
-26 -20 -48 -17 -37 -84 -217 -90 -240 -2 -5 -6 -18 -10 -27 -4 -9 -8 -22 -10
-30 -1 -7 -5 -18 -8 -24 -4 -6 -9 -21 -12 -35 -2 -13 -9 -36 -15 -51 -6 -16
-7 -28 -4 -28 4 0 2 -5 -5 -12 -7 -7 -12 -20 -12 -29 0 -10 -6 -20 -12 -22
-10 -4 -10 -6 -1 -6 9 -1 10 -8 4 -23 -19 -47 -24 -64 -28 -88 -2 -14 -6 -32
-10 -40 -3 -8 -5 -19 -4 -23 1 -5 -3 -25 -8 -45 -6 -20 -11 -39 -11 -42 -1 -3
-5 -23 -11 -45 -9 -36 -13 -59 -24 -120 -13 -82 -17 -102 -22 -115 -3 -8 -7
-43 -9 -78 -2 -35 -7 -68 -10 -74 -4 -6 -9 -34 -13 -62 -9 -79 -7 -1483 2
-1551 8 -59 11 -78 21 -160 3 -22 8 -56 11 -75 3 -19 7 -48 10 -65 13 -96 22
-150 25 -150 1 0 3 -13 5 -30 7 -53 13 -90 19 -105 3 -8 7 -31 10 -50 8 -50
15 -85 31 -154 8 -33 12 -62 10 -65 -3 -2 -1 -9 4 -15 5 -6 12 -27 15 -47 3
-20 10 -49 16 -65 6 -16 11 -30 10 -32 -1 -2 4 -30 14 -82 2 -8 6 -22 9 -30 3
-8 9 -28 13 -45 15 -62 72 -264 84 -295 7 -21 51 -163 55 -180 11 -42 19 -67
26 -76 5 -6 10 -19 12 -30 2 -10 7 -26 10 -34 3 -8 15 -44 27 -80 11 -36 25
-74 29 -85 12 -28 36 -89 36 -95 1 -3 9 -22 18 -44 9 -21 17 -45 17 -52 0 -8
4 -14 9 -14 5 0 11 -15 15 -32 5 -27 64 -173 131 -323 12 -26 32 -73 78 -177
6 -16 15 -28 18 -28 4 0 10 -12 14 -27 6 -27 198 -416 235 -478 9 -16 31 -55
47 -85 57 -106 137 -246 170 -297 18 -29 33 -56 33 -62 0 -5 3 -11 8 -13 4 -1
36 -51 71 -111 36 -59 70 -112 78 -118 7 -6 13 -16 13 -21 0 -5 4 -14 10 -21
5 -7 38 -55 73 -107 135 -202 264 -383 319 -449 6 -7 37 -48 68 -90 31 -42 63
-83 71 -91 8 -8 21 -24 29 -36 21 -30 157 -194 237 -284 12 -14 31 -36 43 -50
93 -108 414 -446 484 -509 15 -14 59 -55 96 -91 37 -36 93 -87 125 -115 31
-27 67 -59 79 -70 110 -98 157 -138 191 -164 22 -17 54 -42 70 -56 17 -13 40
-32 52 -42 12 -10 30 -25 40 -33 10 -8 34 -26 53 -40 19 -14 42 -30 50 -37 30
-25 88 -68 110 -83 12 -8 28 -21 36 -27 7 -7 15 -13 19 -13 3 0 11 -5 18 -11
7 -5 50 -37 97 -69 47 -32 90 -62 95 -67 6 -4 27 -17 48 -28 20 -11 37 -23 37
-27 0 -5 5 -8 10 -8 12 0 94 -52 98 -62 2 -5 8 -8 13 -8 5 0 38 -18 74 -40 36
-22 70 -40 75 -40 6 0 10 -4 10 -10 0 -5 6 -10 14 -10 8 0 21 -6 28 -13 7 -7
28 -19 46 -26 17 -7 32 -18 32 -23 0 -5 4 -7 9 -3 5 3 12 2 15 -3 3 -4 49 -30
103 -57 54 -27 100 -52 101 -57 2 -4 8 -6 13 -2 5 3 9 0 9 -5 0 -6 3 -10 8 -9
4 2 39 -13 77 -32 39 -19 72 -35 75 -35 3 -1 22 -9 43 -18 20 -9 40 -16 42
-16 3 0 20 -8 38 -18 17 -9 34 -18 37 -18 16 -5 49 -18 73 -31 16 -7 32 -14
37 -14 4 0 25 -8 46 -17 22 -9 42 -18 47 -19 4 -1 8 -2 10 -4 1 -1 9 -3 17 -5
8 -3 53 -18 100 -35 47 -17 92 -32 100 -35 8 -2 16 -4 18 -5 2 -3 2 -3 52 -14
19 -5 41 -13 48 -18 6 -6 12 -8 12 -4 0 3 12 1 26 -4 56 -22 312 -84 392 -96
20 -3 45 -7 54 -10 24 -7 59 -14 98 -19 19 -2 51 -7 70 -10 19 -2 55 -7 80
-10 25 -4 56 -8 70 -10 116 -17 456 -23 635 -11 122 8 141 10 230 21 166 22
558 116 620 149 11 5 22 11 25 11 28 5 110 38 238 96 35 16 65 29 67 29 8 0
244 135 309 177 83 54 254 179 277 202 9 9 35 32 59 51 92 75 330 321 379 394
8 12 17 23 20 26 4 3 19 23 36 45 16 22 37 49 47 59 10 11 18 23 18 26 0 4 11
20 25 36 14 16 25 32 25 37 0 4 15 29 33 55 52 75 127 202 119 202 -4 0 -2 4
4 8 16 11 74 119 67 126 -4 3 -2 6 3 6 5 0 18 22 29 50 11 27 23 50 27 50 4 0
8 6 8 14 0 8 9 31 21 50 12 20 17 36 12 36 -4 0 -3 4 2 8 11 8 36 69 38 90 0
6 4 12 8 12 3 0 9 8 12 18 3 9 18 54 35 100 16 45 27 82 24 82 -4 0 -1 4 6 9
7 4 14 19 16 32 2 13 9 37 15 54 7 16 17 51 22 77 6 26 14 48 18 48 4 0 8 10
8 23 2 28 7 49 15 62 3 6 10 28 14 50 5 22 9 42 9 45 1 3 5 23 10 45 4 22 10
44 13 50 3 5 7 16 8 25 11 67 45 242 51 260 3 8 7 33 9 55 4 44 12 100 14 100
1 0 3 18 5 40 2 22 7 58 10 80 3 22 8 67 11 100 3 33 7 78 9 100 3 33 12 182
19 335 1 19 5 40 9 47 4 6 4 14 -1 17 -4 2 -7 24 -5 48 5 58 5 59 0 91 -3 15
0 27 7 27 7 0 7 3 1 8 -14 10 -14 65 -1 74 7 5 7 8 1 8 -6 0 -11 30 -11 68 -2
83 -12 272 -20 372 -3 41 -7 96 -8 122 0 27 -3 48 -6 48 -4 0 -6 10 -7 23 0
24 -7 88 -19 182 -4 33 -8 75 -8 92 -1 18 -3 33 -6 33 -6 0 -12 44 -14 93 -1
15 -4 27 -8 27 -4 0 -6 8 -6 18 1 20 -4 50 -31 190 -12 56 -23 117 -26 135 -3
17 -8 39 -10 47 -2 8 -7 30 -10 49 -3 19 -8 37 -10 41 -2 3 -6 17 -9 31 -3 13
-7 33 -10 44 -2 11 -12 54 -22 95 -9 41 -17 81 -17 88 0 6 -3 12 -7 12 -4 0
-7 6 -8 13 -1 14 -4 27 -32 127 -11 41 -23 84 -25 96 -3 12 -12 40 -20 64 -8
23 -13 46 -10 50 3 5 1 10 -3 12 -4 1 -18 37 -31 78 -12 41 -34 109 -49 150
-14 41 -27 78 -28 83 -1 4 -3 9 -4 12 -1 3 -3 8 -5 13 -1 4 -4 14 -8 22 -3 8
-12 35 -20 60 -17 49 -42 118 -62 165 -7 17 -21 53 -30 80 -10 28 -23 55 -28
62 -5 7 -6 17 -2 23 3 5 1 10 -4 10 -6 0 -11 7 -11 15 0 8 -4 23 -10 33 -8 15
-20 42 -65 147 -7 17 -23 52 -35 80 -25 55 -43 97 -45 105 0 3 -8 19 -18 36
-9 17 -13 34 -10 38 4 3 2 6 -3 6 -6 0 -18 19 -28 43 -26 60 -139 291 -145
297 -4 3 -26 46 -51 95 -25 50 -63 122 -85 160 -22 39 -49 89 -60 112 -11 24
-23 43 -27 43 -5 0 -8 5 -8 11 0 6 -13 29 -28 52 -15 23 -34 55 -42 71 -28 55
-35 66 -42 66 -5 0 -8 6 -8 14 0 7 -7 19 -15 26 -8 7 -12 16 -9 21 3 5 0 9 -5
9 -6 0 -11 6 -11 13 0 8 -9 22 -20 32 -11 10 -20 24 -20 32 0 7 -7 21 -16 31
-9 9 -65 91 -125 182 -124 188 -139 210 -156 228 -7 7 -13 17 -13 21 0 7 -34
55 -69 97 -5 6 -26 35 -47 65 -21 30 -43 59 -49 65 -5 6 -19 23 -30 39 -29 40
-97 128 -110 141 -5 6 -21 26 -35 44 -28 38 -58 74 -80 99 -8 9 -44 51 -79 94
-35 42 -68 77 -74 77 -6 0 -8 3 -4 6 5 6 -11 26 -98 120 -22 24 -76 82 -120
130 -155 167 -466 471 -574 561 -19 15 -44 37 -56 48 -27 26 -94 83 -134 115
-17 14 -44 36 -60 50 -16 14 -42 35 -58 47 -15 12 -38 30 -50 40 -11 10 -31
25 -43 33 -12 8 -28 20 -34 25 -35 32 -244 185 -254 185 -5 0 -12 3 -14 8 -5
12 -76 62 -87 62 -6 0 -11 5 -11 10 0 6 -7 10 -15 10 -7 0 -18 6 -22 13 -4 7
-30 26 -57 42 -27 17 -60 38 -75 47 -14 10 -33 21 -41 25 -8 3 -17 10 -20 13
-7 10 -241 147 -330 194 -126 66 -340 175 -348 177 -4 1 -32 13 -62 27 -30 14
-57 27 -60 27 -3 1 -18 8 -35 15 -16 7 -32 14 -35 15 -6 2 -42 17 -95 40 -48
20 -224 85 -245 90 -8 2 -39 13 -68 24 -29 11 -55 20 -57 21 -3 0 -10 2 -17 5
-7 2 -33 10 -58 16 -57 16 -46 13 -112 33 -31 9 -70 19 -85 22 -15 3 -46 10
-68 16 -22 5 -48 12 -57 14 -10 2 -28 6 -40 9 -13 3 -36 8 -53 10 -16 3 -37 8
-45 10 -8 2 -31 6 -50 9 -19 3 -46 8 -60 11 -14 3 -45 7 -70 10 -25 3 -55 8
-67 10 -12 3 -44 7 -70 10 -26 3 -68 8 -93 11 -52 6 -561 13 -605 8z"/>
<path d="M37370 29737 c-3 -2 -45 -7 -95 -10 -185 -12 -480 -61 -651 -107 -40
-11 -85 -22 -101 -24 -61 -11 -441 -134 -533 -173 -19 -8 -44 -19 -55 -23 -11
-4 -41 -17 -67 -29 -26 -12 -50 -21 -53 -21 -3 0 -36 -14 -73 -31 -37 -17 -96
-44 -132 -61 -36 -16 -83 -39 -105 -50 -166 -85 -216 -111 -260 -136 -27 -16
-72 -42 -100 -57 -27 -15 -62 -36 -77 -46 -14 -11 -28 -19 -31 -19 -14 0 -342
-216 -394 -260 -7 -5 -17 -10 -22 -10 -5 0 -16 -6 -23 -13 -7 -7 -37 -30 -67
-51 -30 -21 -59 -43 -65 -47 -26 -22 -56 -45 -82 -64 -52 -37 -212 -166 -240
-192 -7 -7 -17 -13 -22 -13 -6 0 -12 -4 -14 -9 -1 -4 -25 -27 -53 -51 -245
-209 -548 -502 -760 -734 -55 -61 -112 -123 -127 -139 -16 -16 -28 -32 -28
-36 0 -3 -8 -13 -18 -22 -10 -8 -58 -64 -107 -124 -50 -60 -100 -119 -112
-132 -12 -13 -20 -23 -16 -23 3 0 -10 -17 -28 -37 -19 -21 -50 -59 -68 -85
-19 -27 -38 -48 -43 -48 -4 0 -8 -6 -8 -13 0 -7 -13 -27 -29 -45 -17 -17 -27
-32 -24 -32 3 0 -4 -9 -17 -20 -13 -11 -19 -20 -14 -20 5 -1 -2 -10 -15 -20
-13 -11 -20 -20 -17 -20 7 0 -4 -15 -36 -51 -10 -10 -18 -22 -18 -25 0 -3 -15
-27 -32 -52 -32 -45 -39 -55 -65 -86 -7 -8 -13 -20 -13 -26 0 -5 -4 -10 -10
-10 -5 0 -10 -7 -10 -15 0 -8 -4 -15 -10 -15 -5 0 -10 -7 -10 -15 0 -8 -4 -15
-10 -15 -5 0 -10 -7 -10 -15 0 -8 -4 -15 -10 -15 -5 0 -10 -5 -10 -12 0 -6 -9
-21 -19 -32 -10 -12 -27 -37 -38 -56 -22 -42 -54 -91 -68 -106 -5 -6 -19 -27
-30 -47 -11 -20 -23 -37 -27 -37 -5 0 -8 -5 -8 -12 0 -11 -139 -248 -151 -258
-3 -3 -10 -16 -14 -30 -4 -14 -13 -28 -19 -32 -6 -4 -11 -11 -11 -15 -1 -8
-21 -48 -56 -110 -11 -18 -28 -49 -39 -68 -25 -44 -84 -158 -85 -165 -3 -16
-59 -116 -69 -122 -6 -4 -8 -8 -3 -8 4 0 -5 -24 -20 -52 -15 -29 -28 -55 -28
-58 -4 -16 -42 -86 -50 -92 -5 -4 -7 -8 -2 -8 4 0 1 -13 -7 -29 -9 -16 -12
-31 -9 -35 4 -3 2 -6 -4 -6 -6 0 -25 -35 -42 -77 -18 -43 -39 -90 -47 -106 -8
-15 -12 -32 -9 -37 3 -6 1 -10 -5 -10 -6 0 -8 -4 -5 -10 3 -5 2 -10 -2 -10 -9
0 -36 -62 -116 -270 -24 -63 -48 -124 -52 -135 -5 -11 -9 -23 -10 -27 -2 -5
-4 -10 -5 -13 -1 -3 -3 -9 -4 -14 0 -5 -4 -13 -8 -17 -5 -4 -8 -18 -8 -31 0
-12 -4 -23 -8 -23 -5 0 -9 -6 -10 -12 -1 -19 -7 -40 -21 -73 -7 -16 -14 -37
-16 -45 -2 -8 -4 -16 -5 -17 -2 -2 -3 -6 -4 -10 -1 -5 -17 -54 -35 -111 -18
-56 -34 -108 -35 -115 -1 -6 -4 -16 -8 -22 -6 -10 -37 -115 -42 -145 -2 -8 -6
-22 -9 -30 -4 -8 -8 -26 -11 -40 -3 -14 -11 -46 -19 -72 -8 -27 -13 -48 -11
-48 3 0 0 -10 -7 -21 -6 -12 -13 -33 -15 -48 -5 -30 -7 -43 -27 -126 -8 -33
-22 -94 -32 -135 -9 -41 -18 -84 -21 -95 -2 -11 -7 -36 -9 -55 -3 -19 -12 -69
-20 -110 -23 -113 -25 -122 -30 -165 -3 -22 -7 -51 -10 -65 -8 -39 -16 -91
-20 -135 -1 -22 -4 -40 -5 -40 -1 0 -3 -18 -6 -40 -2 -22 -6 -60 -9 -85 -11
-88 -15 -126 -19 -179 -3 -29 -7 -56 -10 -59 -3 -2 -1 -12 4 -22 5 -10 7 -20
3 -23 -8 -9 -11 -44 -18 -217 -4 -80 -7 -156 -9 -170 -1 -14 2 -33 7 -42 4
-10 4 -18 -2 -18 -12 0 -9 -63 4 -72 7 -5 7 -8 0 -8 -6 0 -10 -27 -9 -67 2
-38 3 -68 3 -68 1 0 4 -81 14 -327 1 -21 4 -38 7 -38 3 0 6 -28 7 -63 3 -98 5
-131 11 -141 5 -8 9 -50 13 -123 2 -18 5 -33 8 -33 4 0 6 -12 5 -27 -1 -24 5
-59 23 -148 3 -16 5 -38 5 -47 0 -10 2 -18 6 -18 4 0 8 -19 9 -41 1 -23 5 -49
9 -58 4 -9 8 -23 9 -31 1 -8 5 -26 9 -40 3 -14 12 -56 21 -95 8 -38 19 -79 24
-90 5 -11 12 -33 15 -50 6 -29 13 -55 16 -65 1 -3 2 -9 1 -14 -1 -4 4 -14 10
-22 6 -8 8 -14 5 -14 -4 0 -1 -10 6 -22 7 -13 14 -34 16 -48 2 -13 6 -27 10
-30 4 -3 9 -16 11 -30 1 -14 7 -33 13 -43 5 -10 11 -28 13 -39 3 -12 8 -24 12
-27 5 -3 10 -17 11 -30 2 -14 10 -34 17 -45 8 -12 15 -25 16 -31 4 -23 21 -65
63 -156 14 -31 26 -61 26 -67 0 -7 5 -12 10 -12 6 0 9 -3 8 -7 -4 -14 13 -53
23 -53 5 0 9 -9 9 -19 0 -11 7 -26 15 -35 8 -8 15 -21 15 -30 0 -8 4 -17 9
-20 5 -3 18 -26 30 -51 12 -25 26 -45 31 -45 6 0 10 -3 9 -7 -2 -16 14 -53 22
-53 5 0 9 -5 9 -10 0 -6 23 -44 50 -85 28 -41 50 -78 50 -84 0 -5 4 -11 8 -13
4 -1 23 -25 42 -53 19 -27 37 -52 40 -55 3 -3 21 -25 40 -50 19 -25 37 -47 40
-50 3 -3 38 -44 79 -93 40 -48 87 -98 103 -112 16 -14 27 -25 25 -25 -8 0 42
-48 124 -119 41 -36 79 -70 84 -76 6 -6 37 -31 70 -55 33 -25 62 -47 65 -50 3
-3 21 -17 40 -30 19 -14 40 -28 45 -33 30 -24 209 -133 267 -163 36 -18 69
-38 73 -43 3 -6 12 -8 20 -4 8 3 15 1 15 -5 0 -26 459 -198 609 -228 14 -3 28
-7 31 -9 4 -2 22 -7 41 -10 19 -3 77 -14 129 -25 52 -10 124 -21 160 -25 36
-4 73 -9 83 -11 85 -16 479 -23 627 -10 124 10 182 16 210 21 14 3 52 7 85 11
158 15 516 99 765 179 63 20 125 39 138 42 12 3 22 9 22 14 0 5 7 9 15 9 8 0
36 7 62 16 45 15 65 23 146 58 17 8 57 24 87 36 30 11 87 36 125 55 39 18 104
50 145 69 71 34 189 96 311 163 82 45 313 184 319 191 3 4 15 13 28 20 12 6
32 18 45 25 12 6 24 14 27 17 3 3 34 25 70 49 166 114 204 141 340 245 140
107 178 137 206 163 7 7 17 13 22 13 6 0 12 4 14 8 2 5 35 35 73 68 99 83 113
95 149 129 18 17 61 55 96 85 136 118 544 537 680 698 29 34 57 62 62 62 4 0
8 6 8 13 0 7 9 19 20 27 11 8 20 20 20 26 0 7 7 14 15 18 8 3 15 12 15 20 0 8
9 18 20 21 11 3 20 10 20 15 0 4 15 26 33 48 17 22 43 54 57 72 14 18 31 38
38 45 6 8 12 16 12 19 0 3 12 18 28 34 15 16 34 39 42 52 20 29 82 114 89 120
4 3 19 24 35 48 16 23 33 42 37 42 5 0 9 4 9 10 0 14 122 190 132 190 4 0 8 5
8 10 0 9 67 118 80 130 3 3 41 61 85 130 44 69 83 127 87 128 5 2 8 9 8 14 0
6 20 43 44 82 45 73 49 80 132 226 26 47 51 87 56 88 4 2 6 8 2 13 -3 5 0 9 7
9 7 0 10 3 6 6 -3 4 9 31 28 60 19 30 33 54 30 54 -2 0 9 23 25 50 16 28 27
50 25 50 -3 0 6 18 20 40 14 22 25 44 25 50 0 5 5 10 10 10 6 0 9 3 8 8 -1 4
28 69 65 145 37 76 67 143 67 148 0 5 5 9 10 9 6 0 9 3 8 8 -2 4 10 36 27 72
16 36 30 67 31 70 2 8 33 81 60 138 13 29 24 58 24 65 0 7 5 18 12 25 6 6 13
17 14 24 1 7 10 31 19 53 10 22 19 47 21 55 2 8 7 23 12 35 15 31 72 179 72
186 0 4 8 24 17 45 9 22 17 41 18 44 1 4 22 74 30 100 1 3 6 16 12 30 9 22 72
220 78 245 1 6 5 17 8 25 9 24 31 94 33 106 1 6 9 37 18 68 9 31 14 61 11 65
-3 5 -1 11 5 13 6 2 12 14 15 28 6 33 25 111 33 130 3 8 4 19 3 24 -1 4 4 14
10 22 6 8 9 14 6 14 -3 0 -1 17 4 38 5 20 18 78 29 127 11 50 22 97 24 105 2
8 6 31 10 50 7 42 13 69 26 135 5 28 12 66 15 85 3 19 10 61 16 94 6 32 8 60
5 63 -3 3 -1 13 3 22 5 9 12 38 15 65 4 27 9 53 12 58 3 4 0 8 -7 8 -8 0 -8 4
1 15 7 8 10 21 7 29 -3 8 -3 17 0 20 4 3 7 21 8 38 2 18 6 54 9 80 4 26 9 74
11 106 2 32 7 83 10 113 3 30 8 96 10 148 2 51 7 96 9 99 3 2 1 13 -5 23 -5
11 -6 19 -1 19 12 0 9 73 -3 82 -6 5 -6 8 1 8 7 0 10 68 8 223 -1 122 -3 222
-3 222 -1 0 -4 47 -6 105 -6 126 -16 239 -31 355 -2 17 -6 46 -8 65 -3 19 -7
58 -11 85 -3 28 -8 57 -10 65 -2 8 -7 30 -10 48 -6 37 -15 90 -20 112 -2 8 -6
39 -10 68 -4 28 -11 52 -15 52 -4 0 -7 8 -7 18 1 31 -15 102 -24 108 -5 3 -7
9 -4 14 3 4 -9 54 -25 111 -16 57 -30 112 -30 122 0 9 -4 17 -10 17 -5 0 -7 7
-4 15 4 8 1 15 -6 15 -6 0 -9 4 -6 8 5 8 -21 94 -44 147 -5 11 -14 38 -21 60
-7 22 -17 44 -21 50 -4 5 -8 15 -8 22 0 12 -12 42 -58 143 -9 19 -16 37 -17
40 0 9 -148 305 -154 310 -3 3 -13 19 -21 35 -8 17 -18 32 -21 35 -4 3 -14 21
-23 40 -8 19 -35 62 -60 95 -25 33 -45 65 -45 71 -1 6 -10 19 -21 29 -11 10
-20 22 -20 26 0 8 -20 36 -47 64 -7 8 -13 16 -13 20 0 3 -13 20 -30 38 -16 18
-30 35 -30 39 0 3 -17 24 -37 46 -21 21 -56 61 -78 87 -51 62 -147 157 -233
231 -37 32 -76 67 -88 78 -11 12 -37 32 -57 46 -20 14 -37 28 -37 33 0 4 -6 7
-13 7 -7 0 -26 12 -43 28 -17 15 -40 32 -50 39 -11 6 -66 41 -124 77 -58 36
-110 70 -116 75 -7 5 -15 7 -18 4 -3 -4 -6 -1 -6 6 0 7 -4 10 -9 7 -5 -4 -11
-3 -13 1 -4 9 -228 120 -258 128 -3 1 -21 8 -40 17 -51 22 -266 94 -335 113
-33 9 -67 18 -75 20 -30 8 -276 57 -300 60 -78 8 -141 16 -161 21 -30 7 -563
17 -569 11z"/>
<path d="M20167 23223 c-2 -1 -84 -5 -182 -9 -99 -3 -202 -7 -230 -9 -27 -1
-104 -5 -170 -9 -66 -4 -138 -9 -160 -11 -22 -2 -74 -7 -115 -10 -41 -3 -102
-8 -135 -11 -33 -3 -78 -7 -99 -9 -22 -2 -60 -6 -85 -9 -25 -3 -77 -9 -116
-12 -38 -3 -78 -8 -90 -10 -11 -2 -42 -6 -70 -9 -87 -10 -219 -26 -245 -31
-14 -3 -41 -7 -60 -9 -19 -2 -80 -10 -135 -19 -55 -8 -118 -18 -140 -21 -22
-3 -46 -8 -53 -10 -7 -3 -34 -7 -60 -10 -52 -7 -232 -39 -302 -55 -25 -5 -58
-12 -75 -15 -30 -4 -248 -49 -335 -69 -14 -3 -81 -19 -150 -35 -69 -17 -134
-32 -145 -34 -26 -5 -60 -14 -165 -43 -47 -12 -96 -25 -110 -28 -14 -3 -59
-15 -100 -26 -41 -12 -79 -23 -85 -24 -19 -5 -100 -28 -145 -41 -235 -72 -529
-166 -570 -182 -8 -3 -19 -7 -25 -8 -5 -2 -80 -28 -165 -60 -85 -31 -180 -66
-210 -77 -30 -11 -68 -26 -85 -33 -16 -7 -46 -18 -65 -25 -32 -12 -82 -33
-155 -65 -16 -7 -61 -25 -99 -40 -38 -15 -77 -31 -85 -35 -9 -4 -27 -12 -41
-18 -216 -93 -599 -277 -825 -396 -194 -103 -262 -140 -275 -150 -8 -7 -33
-21 -55 -31 -22 -11 -42 -23 -45 -26 -3 -3 -25 -16 -50 -30 -25 -13 -46 -27
-48 -31 -2 -5 -8 -8 -14 -8 -6 0 -29 -13 -53 -29 -24 -16 -53 -32 -64 -36 -12
-3 -21 -10 -21 -14 0 -5 -13 -14 -30 -21 -16 -7 -30 -16 -30 -21 0 -5 -3 -8
-7 -7 -5 2 -89 -51 -188 -117 -99 -66 -184 -122 -190 -124 -5 -2 -14 -10 -20
-16 -5 -6 -41 -34 -80 -60 -38 -27 -74 -53 -80 -57 -217 -168 -278 -216 -319
-253 -6 -6 -31 -26 -56 -45 -25 -19 -54 -43 -64 -52 -11 -10 -23 -18 -26 -18
-4 0 -19 -10 -33 -22 -23 -21 -51 -45 -127 -109 -14 -11 -52 -45 -85 -74 -33
-29 -77 -68 -98 -86 -66 -58 -508 -501 -592 -594 -44 -49 -93 -103 -110 -121
-16 -18 -52 -58 -80 -89 -27 -32 -61 -69 -75 -85 -14 -15 -41 -46 -60 -70 -19
-24 -40 -48 -45 -54 -9 -10 -107 -125 -133 -157 -26 -31 -59 -71 -84 -102 -25
-30 -109 -135 -133 -165 -5 -8 -20 -25 -32 -38 -13 -14 -23 -29 -23 -34 0 -6
-3 -10 -7 -10 -5 0 -19 -17 -33 -37 -14 -20 -29 -41 -35 -47 -5 -6 -39 -49
-75 -96 -35 -47 -69 -88 -75 -92 -5 -4 -7 -8 -3 -8 6 0 -17 -30 -54 -71 -10
-10 -18 -21 -18 -24 0 -12 -48 -73 -54 -68 -3 4 -6 0 -6 -8 0 -8 -11 -26 -25
-41 -14 -15 -25 -32 -25 -38 0 -5 -4 -10 -9 -10 -5 0 -12 -8 -16 -19 -3 -10
-17 -31 -31 -47 -14 -16 -39 -49 -56 -74 -71 -104 -123 -175 -130 -178 -5 -2
-8 -10 -8 -18 0 -8 -4 -14 -10 -14 -5 0 -10 -6 -10 -14 0 -8 -7 -17 -16 -20
-8 -3 -12 -10 -9 -16 3 -5 2 -10 -3 -10 -5 0 -14 -10 -19 -22 -6 -13 -18 -32
-27 -43 -44 -56 -106 -146 -106 -155 0 -6 -4 -10 -10 -10 -5 0 -10 -7 -10 -15
0 -8 -3 -15 -8 -15 -4 0 -16 -16 -26 -35 -11 -19 -23 -35 -28 -35 -4 0 -8 -6
-8 -13 0 -7 -9 -23 -20 -35 -11 -12 -20 -25 -20 -30 0 -4 -8 -17 -17 -28 -10
-10 -24 -31 -32 -46 -8 -15 -22 -37 -33 -47 -10 -11 -18 -23 -18 -27 0 -3 -26
-45 -57 -92 -32 -48 -64 -99 -72 -114 -7 -16 -17 -28 -22 -28 -5 0 -9 -5 -9
-12 0 -6 -11 -26 -25 -44 -14 -18 -25 -37 -25 -43 0 -6 -4 -11 -10 -11 -5 0
-10 -6 -10 -13 0 -7 -9 -23 -20 -35 -12 -12 -18 -22 -16 -22 5 0 -30 -57 -51
-85 -5 -5 -35 -54 -68 -108 -69 -112 -64 -105 -130 -216 -28 -45 -60 -99 -73
-120 -12 -20 -31 -52 -42 -71 -11 -19 -34 -57 -51 -85 -16 -27 -37 -65 -46
-82 -9 -18 -20 -33 -25 -33 -4 0 -8 -6 -8 -14 0 -8 -7 -21 -15 -30 -9 -8 -16
-18 -15 -21 0 -4 -40 -77 -70 -125 -13 -21 -122 -215 -139 -248 -8 -15 -19
-30 -25 -34 -6 -4 -7 -8 -3 -8 5 0 0 -12 -11 -27 -10 -16 -22 -35 -25 -43 -4
-8 -23 -42 -42 -75 -19 -33 -43 -79 -55 -102 -11 -23 -24 -45 -30 -48 -5 -3
-10 -12 -10 -20 0 -7 -18 -43 -40 -79 -22 -36 -40 -70 -40 -75 0 -5 -6 -16
-12 -23 -7 -8 -26 -38 -41 -68 -79 -151 -131 -251 -163 -309 -19 -35 -34 -70
-34 -77 0 -7 -4 -14 -9 -16 -5 -1 -44 -73 -87 -158 -42 -85 -81 -157 -86 -158
-4 -2 -6 -8 -2 -13 3 -5 0 -9 -5 -9 -6 0 -10 -3 -9 -7 3 -11 -34 -87 -46 -95
-6 -4 -8 -8 -3 -8 4 0 -4 -18 -18 -40 -14 -22 -25 -46 -25 -55 0 -8 -4 -15
-10 -15 -5 0 -10 -6 -10 -14 0 -17 -32 -80 -43 -84 -4 -2 -5 -7 -2 -12 3 -5 0
-14 -7 -22 -7 -7 -14 -20 -16 -28 -2 -8 -8 -18 -14 -21 -5 -3 -10 -9 -10 -12
0 -19 -12 -47 -20 -47 -5 0 -6 -4 -3 -10 3 -5 1 -10 -6 -10 -7 0 -10 -3 -7 -6
4 -3 -17 -51 -45 -107 -28 -56 -52 -109 -54 -118 -1 -8 -9 -29 -18 -45 -8 -16
-15 -35 -15 -42 0 -7 -4 -20 -9 -30 -14 -26 -151 -413 -151 -425 0 -3 -5 -18
-12 -34 -6 -15 -12 -34 -14 -41 -1 -8 -6 -21 -10 -30 -4 -9 -8 -22 -9 -28 -2
-5 -22 -71 -46 -145 -24 -74 -44 -139 -45 -144 -2 -12 -34 -123 -42 -145 -3
-8 -6 -22 -7 -30 -1 -8 -4 -22 -8 -30 -13 -32 -37 -111 -42 -137 -3 -16 -12
-53 -20 -83 -9 -30 -18 -66 -21 -80 -3 -14 -12 -50 -20 -80 -8 -30 -22 -84
-30 -120 -8 -36 -16 -69 -18 -75 -4 -16 -15 -68 -20 -95 -3 -14 -10 -45 -17
-70 -12 -52 -17 -74 -25 -115 -3 -16 -9 -48 -14 -70 -5 -22 -12 -56 -15 -75
-3 -19 -8 -42 -10 -50 -3 -8 -7 -33 -10 -55 -3 -22 -7 -51 -10 -65 -11 -54
-33 -188 -41 -245 -3 -27 -8 -59 -10 -70 -5 -26 -12 -75 -24 -175 -6 -47 -13
-101 -15 -120 -6 -42 -13 -112 -20 -200 -3 -36 -8 -94 -11 -130 -11 -127 -11
-155 0 -169 8 -11 8 -13 -2 -7 -9 5 -12 -4 -13 -36 -1 -24 -2 -77 -4 -118 -11
-255 -1 -738 19 -930 2 -19 7 -68 10 -108 8 -89 16 -159 21 -192 3 -14 8 -50
11 -80 6 -59 61 -384 70 -412 3 -10 7 -30 10 -45 3 -16 12 -57 20 -93 9 -36
18 -76 20 -89 6 -31 43 -168 53 -201 5 -14 14 -45 21 -70 30 -106 84 -265 92
-268 4 -2 6 -7 3 -12 -3 -5 0 -21 6 -37 7 -15 13 -33 14 -39 4 -16 81 -207
133 -329 64 -151 278 -571 302 -595 3 -3 14 -23 25 -45 11 -22 25 -44 31 -50
5 -5 28 -39 49 -75 21 -36 41 -67 44 -70 11 -9 51 -69 51 -75 0 -14 273 -373
342 -450 14 -16 36 -41 48 -55 12 -14 42 -49 68 -79 57 -66 339 -348 411 -411
29 -25 65 -56 80 -70 67 -58 99 -85 149 -124 28 -22 52 -44 52 -48 0 -5 6 -8
13 -8 6 0 29 -16 51 -35 21 -19 41 -35 45 -35 3 0 18 -10 32 -22 14 -13 32
-27 41 -33 15 -9 78 -53 190 -132 26 -18 50 -33 54 -33 3 0 20 -11 38 -25 18
-14 37 -25 43 -25 5 0 19 -9 31 -20 12 -12 22 -17 22 -13 0 4 4 4 8 -2 4 -5
32 -23 62 -39 30 -16 57 -32 60 -35 3 -3 37 -22 75 -41 39 -18 73 -39 77 -45
4 -5 8 -7 8 -3 0 5 31 -8 69 -27 37 -19 73 -35 80 -35 6 0 11 -5 11 -12 0 -6
3 -8 7 -5 3 4 12 2 20 -4 15 -13 214 -102 288 -129 28 -10 64 -24 80 -30 17
-6 31 -11 32 -11 2 1 106 -35 163 -57 8 -3 20 -6 25 -8 120 -36 248 -72 278
-79 10 -2 27 -7 37 -10 10 -3 28 -8 39 -10 12 -3 31 -7 44 -11 12 -3 33 -7 47
-10 14 -3 33 -7 42 -10 10 -3 28 -7 40 -10 13 -2 32 -6 43 -8 70 -14 236 -46
270 -50 23 -4 52 -9 65 -11 14 -3 45 -8 70 -11 25 -3 54 -8 65 -10 11 -2 40
-7 65 -10 25 -3 55 -7 68 -9 13 -2 53 -7 90 -10 37 -4 76 -8 87 -10 11 -1 56
-6 100 -9 44 -4 105 -9 135 -11 181 -15 317 -19 680 -19 350 -1 564 5 700 18
19 2 78 7 130 10 52 4 111 9 130 11 19 2 67 6 105 9 39 4 81 8 95 11 14 2 52
7 85 10 84 8 146 15 175 20 14 3 77 12 140 20 136 19 132 18 288 45 102 17
192 35 335 65 10 2 27 7 37 10 10 3 27 8 38 10 18 3 227 64 297 86 83 25 192
61 205 66 8 4 17 7 20 8 3 1 12 4 20 8 8 3 49 17 90 32 91 33 228 84 255 96
11 5 43 17 70 27 28 10 59 23 70 27 11 5 22 9 25 10 9 3 64 25 85 34 11 5 31
13 45 19 14 5 43 17 65 27 22 9 49 20 60 25 25 10 75 31 140 59 28 12 61 27
75 33 35 14 78 33 130 56 110 49 175 77 180 78 5 1 53 22 156 69 32 15 75 34
94 42 19 8 58 25 85 38 28 13 70 32 95 43 125 55 168 75 205 92 22 10 63 29
90 40 28 12 73 32 100 45 57 25 218 98 285 128 25 11 73 33 108 48 34 16 64
29 66 29 3 0 44 18 91 40 47 22 89 40 92 40 3 0 19 6 36 14 93 42 148 66 152
66 2 0 28 11 57 24 29 14 109 48 178 77 69 28 139 57 155 64 17 7 57 23 90 36
33 13 64 27 69 31 6 4 16 8 23 8 7 0 35 9 61 21 26 12 56 25 67 29 25 11 181
56 215 63 14 2 90 18 170 35 80 17 195 38 255 47 61 9 126 18 145 22 19 3 60
7 90 9 30 2 111 7 180 12 170 10 426 5 575 -12 22 -3 65 -8 95 -11 55 -7 97
-13 135 -20 11 -2 43 -6 70 -10 28 -3 57 -8 65 -10 8 -2 29 -7 45 -10 17 -2
41 -7 55 -10 14 -3 36 -7 50 -10 37 -7 95 -21 125 -29 6 -2 28 -6 50 -10 41
-8 95 -23 130 -36 11 -5 58 -23 105 -40 47 -18 99 -38 117 -46 17 -8 34 -14
37 -14 3 0 29 -11 58 -24 107 -48 148 -65 148 -61 0 3 17 -4 38 -15 31 -16 84
-39 102 -45 12 -4 67 -28 90 -40 14 -7 30 -14 35 -15 6 -1 21 -7 35 -13 14 -6
28 -10 33 -9 4 1 7 -3 7 -8 0 -5 3 -9 8 -8 4 1 25 -6 47 -16 57 -25 89 -39 95
-41 3 -1 23 -10 45 -20 22 -10 42 -19 45 -19 5 -2 29 -12 148 -67 35 -16 65
-29 68 -29 3 0 35 -14 72 -31 37 -17 85 -39 107 -49 22 -10 58 -26 80 -36 22
-10 42 -19 45 -19 5 0 28 -11 150 -69 24 -11 48 -20 52 -19 4 2 8 -2 8 -9 0
-6 3 -8 7 -5 3 4 20 -2 38 -13 18 -11 35 -17 38 -13 4 3 7 1 7 -5 0 -7 6 -12
14 -12 8 0 36 -11 63 -24 26 -13 66 -31 88 -41 22 -9 60 -27 84 -39 25 -11 47
-21 50 -21 3 -1 24 -9 46 -19 22 -10 59 -27 83 -37 23 -11 61 -27 85 -38 23
-10 60 -27 82 -37 22 -10 43 -17 48 -16 4 1 7 -3 7 -8 0 -5 3 -9 8 -8 4 1 21
-5 37 -12 17 -7 32 -14 35 -15 3 -1 19 -7 35 -14 17 -7 30 -11 30 -10 0 2 14
-4 30 -14 24 -13 92 -44 115 -52 17 -6 70 -28 95 -39 33 -15 87 -39 95 -41 3
-1 17 -7 33 -13 66 -28 83 -35 92 -38 6 -1 28 -10 50 -19 53 -23 89 -38 95
-40 12 -4 48 -18 80 -31 63 -25 95 -37 105 -40 30 -8 116 -42 122 -47 3 -4 12
-7 19 -7 7 0 25 -5 41 -12 15 -6 33 -12 38 -14 6 -2 81 -27 168 -57 86 -30
157 -53 157 -51 0 2 17 -3 38 -11 33 -12 104 -33 124 -35 4 -1 22 -6 40 -11
53 -16 230 -59 268 -65 19 -3 38 -8 41 -10 4 -2 67 -13 140 -24 130 -19 167
-25 219 -35 14 -3 48 -7 75 -10 28 -3 59 -7 71 -9 12 -2 45 -7 75 -11 30 -3
65 -8 79 -10 14 -2 57 -7 95 -11 39 -3 77 -8 85 -9 34 -6 260 -27 438 -41 263
-19 1020 -26 1232 -11 254 18 400 31 500 43 25 3 59 8 75 10 26 3 70 9 140 19
315 44 674 121 960 206 105 32 279 91 290 99 6 4 26 11 45 15 19 4 40 10 45
14 6 4 42 20 80 36 133 53 434 207 580 296 77 47 392 260 412 278 12 12 27 21
33 21 6 0 13 7 16 15 4 8 11 15 18 15 6 0 28 16 49 35 21 19 40 35 43 35 3 0
15 10 28 23 12 12 38 33 57 47 18 14 44 35 57 48 12 12 25 22 28 22 4 0 72 60
137 123 22 20 41 37 44 37 7 0 275 272 355 360 74 82 91 102 132 152 11 12 33
39 50 59 17 20 42 51 56 69 14 18 32 40 40 49 32 35 100 131 100 141 0 5 4 10
8 10 5 0 35 38 67 85 32 47 62 85 65 85 4 0 7 6 7 13 0 6 25 49 56 93 31 45
54 84 50 88 -3 3 1 6 11 6 9 0 15 4 12 8 -3 5 6 25 19 45 14 20 25 41 25 46 0
6 4 11 8 11 8 0 30 39 28 50 0 3 14 26 31 51 18 26 29 49 26 53 -4 3 -1 6 6 6
7 0 10 4 6 9 -3 6 3 14 12 20 10 6 14 11 9 11 -5 0 -4 6 2 13 20 24 80 146 74
151 -3 3 0 6 6 6 7 0 12 4 12 9 0 5 17 44 37 87 20 44 36 82 35 87 -1 4 3 7 8
7 6 0 10 6 10 13 0 7 9 30 20 51 10 22 17 43 14 47 -2 4 4 12 13 18 10 6 15
11 11 11 -4 0 8 37 27 81 19 45 32 86 29 91 -3 4 1 10 8 13 8 3 14 13 15 23 2
31 8 46 21 61 7 7 11 20 8 27 -3 7 -1 16 3 19 7 4 43 104 57 158 1 4 3 9 4 12
1 3 4 10 5 15 1 6 4 13 5 18 2 4 4 12 4 17 1 6 6 24 13 40 14 39 34 106 36
125 2 8 6 20 9 26 4 6 10 24 13 40 7 33 13 57 15 64 1 3 3 10 4 15 2 17 37
159 43 175 3 8 7 33 9 55 3 21 8 41 12 45 7 5 9 16 14 92 2 21 6 38 10 38 4 0
7 8 6 18 0 9 3 35 7 57 5 22 9 52 9 67 1 16 4 28 7 28 4 0 5 14 4 30 -1 17 0
30 4 30 7 0 8 13 16 110 2 25 4 45 6 45 2 0 4 16 14 105 10 100 15 149 19 216
2 34 6 66 10 72 3 6 0 13 -6 15 -7 3 -8 6 -3 6 6 1 10 29 9 66 0 40 4 65 10
65 6 0 5 4 -3 9 -10 6 -10 10 -1 16 9 6 9 10 -1 16 -8 5 -9 9 -4 9 6 0 10 48
10 124 0 73 3 122 9 119 5 -4 6 0 1 7 -12 19 -13 113 -2 128 5 6 6 12 1 12 -5
0 -10 62 -12 138 -4 145 -9 264 -12 272 -6 14 -4 47 3 64 6 12 5 16 -2 12 -6
-4 -10 9 -9 36 0 24 -1 45 -2 48 -1 3 -3 23 -4 45 0 22 -5 46 -9 53 -5 7 -4
12 3 12 6 0 8 5 3 13 -8 13 -9 22 -15 124 -1 35 -6 63 -9 63 -3 0 -7 17 -7 38
-2 37 -8 87 -11 87 -2 0 -12 96 -14 133 0 12 -3 22 -6 22 -4 0 -6 15 -5 33 0
17 -2 36 -5 42 -3 5 -6 21 -7 35 -1 14 -4 41 -8 60 -4 19 -11 60 -17 90 -6 30
-12 69 -15 87 -2 17 -8 42 -12 55 -4 13 -7 35 -6 51 0 15 -2 27 -5 27 -4 0 -8
12 -9 28 -3 28 -9 67 -12 67 -1 0 -8 32 -13 65 -1 8 -5 20 -8 25 -3 6 -6 26
-8 45 -2 19 -6 40 -11 45 -4 6 -6 18 -5 28 2 9 -1 17 -5 17 -5 0 -7 9 -5 20 2
11 0 22 -5 25 -5 3 -7 12 -4 19 3 8 0 17 -5 21 -6 3 -9 11 -6 16 4 5 3 15 -2
22 -4 6 -9 23 -11 37 -1 14 -7 37 -13 52 -6 15 -8 32 -4 37 3 6 1 11 -6 11 -7
0 -10 3 -6 6 3 3 -1 24 -9 46 -7 22 -12 44 -9 48 3 5 1 11 -5 15 -5 3 -10 16
-10 29 0 12 -3 26 -7 30 -7 6 -9 15 -17 61 -2 11 -7 28 -10 37 -4 9 -8 22 -10
30 -1 7 -4 18 -8 23 -3 6 -8 24 -9 40 -2 17 -7 32 -11 35 -4 3 -9 19 -12 35
-2 17 -5 30 -6 30 -1 0 -4 11 -6 25 -3 13 -9 29 -14 34 -6 6 -10 24 -10 42 0
18 -4 34 -10 36 -5 2 -11 15 -12 31 -1 15 -6 27 -10 27 -4 0 -8 9 -8 21 0 11
-5 29 -11 40 -6 11 -12 28 -14 37 -10 54 -27 102 -36 102 -6 0 -8 4 -5 9 6 10
-31 129 -47 149 -5 7 -7 15 -4 19 4 3 1 15 -5 27 -7 11 -13 23 -13 26 -2 11
-28 86 -34 95 -3 6 -7 19 -8 30 -2 11 -8 24 -13 29 -6 6 -10 20 -10 33 0 13
-4 23 -9 23 -5 0 -11 12 -14 28 -3 15 -11 41 -18 57 -7 17 -12 33 -11 38 1 4
-2 7 -8 7 -5 0 -7 7 -4 15 4 8 2 15 -4 15 -5 0 -13 15 -16 33 -3 18 -19 58
-36 90 -16 31 -27 57 -23 57 3 0 -2 9 -12 20 -10 11 -14 20 -9 20 5 0 5 4 -1
8 -11 8 -43 73 -41 83 0 3 -5 13 -11 21 -11 13 -86 155 -89 168 -3 13 -18 46
-24 50 -10 8 -50 95 -50 108 0 7 -4 12 -9 12 -7 0 -13 14 -21 48 -1 4 -7 14
-13 22 -7 8 -46 83 -87 165 -41 83 -78 151 -82 153 -5 2 -8 12 -8 22 0 10 -3
20 -7 22 -5 2 -19 26 -33 53 -14 28 -29 53 -35 57 -5 4 -7 8 -2 8 4 0 -3 17
-16 38 -13 20 -36 63 -51 94 -15 32 -32 60 -37 63 -5 4 -7 11 -4 16 4 5 1 9
-4 9 -6 0 -11 5 -11 11 0 7 -18 43 -40 81 -22 39 -40 76 -40 84 0 8 -4 14 -8
14 -9 0 -77 131 -74 143 1 4 -3 7 -8 7 -6 0 -15 11 -20 25 -5 13 -20 42 -34
63 -14 22 -22 43 -19 46 4 3 1 6 -5 6 -7 0 -12 6 -12 13 0 6 -9 23 -20 37 -11
14 -20 33 -20 43 0 9 -4 17 -9 17 -11 0 -41 56 -41 77 0 7 -4 13 -9 13 -5 0
-19 21 -32 48 -12 26 -25 49 -28 52 -7 6 -26 38 -53 90 -10 19 -30 53 -43 75
-13 22 -30 51 -37 65 -7 14 -20 36 -30 49 -10 13 -15 27 -12 32 3 5 1 9 -5 9
-5 0 -16 12 -24 28 -27 53 -99 176 -107 182 -4 3 -13 20 -21 38 -8 17 -17 32
-21 32 -5 0 -8 7 -8 15 0 8 -4 15 -8 15 -4 0 -13 12 -20 28 -18 41 -64 117
-73 120 -5 2 -9 8 -9 13 0 5 -12 28 -27 52 -15 23 -26 45 -25 50 1 4 -2 7 -7
7 -5 0 -14 13 -21 29 -6 16 -19 37 -28 47 -10 11 -24 32 -32 48 -29 57 -35 66
-42 66 -5 0 -8 7 -8 15 0 8 -5 15 -11 15 -5 0 -7 5 -4 10 3 6 2 10 -2 10 -5 0
-17 17 -28 38 -11 20 -23 39 -26 42 -4 3 -21 30 -40 60 -18 30 -37 57 -41 58
-4 2 -8 8 -8 13 0 5 -22 43 -50 85 -27 41 -50 79 -50 84 0 5 -3 10 -7 12 -11
5 -73 97 -73 108 0 6 -4 10 -10 10 -5 0 -10 6 -10 13 0 8 -9 22 -20 32 -11 10
-20 24 -20 31 0 7 -3 14 -8 16 -4 2 -39 50 -77 108 -38 58 -72 107 -75 110 -4
3 -15 20 -25 38 -11 17 -23 32 -27 32 -4 0 -8 6 -8 14 0 7 -7 19 -15 26 -8 7
-13 16 -10 20 3 4 -2 10 -10 14 -8 3 -15 12 -15 21 0 8 -4 15 -8 15 -5 0 -35
39 -67 88 -33 48 -64 92 -70 98 -5 6 -17 22 -25 34 -8 12 -21 28 -27 36 -7 7
-13 17 -13 23 0 6 -4 11 -9 11 -5 0 -12 8 -16 19 -3 10 -16 30 -28 43 -12 14
-29 35 -37 47 -20 30 -115 158 -148 200 -15 18 -31 41 -36 50 -5 9 -12 18 -15
21 -3 3 -19 23 -36 45 -16 22 -40 51 -52 65 -13 14 -23 30 -23 37 0 6 -4 13
-9 15 -5 2 -73 84 -151 183 -79 99 -146 182 -149 185 -3 3 -32 37 -63 75 -31
39 -67 82 -80 96 -13 15 -41 48 -63 74 -57 67 -107 125 -130 151 -11 12 -47
52 -80 89 -33 37 -78 87 -100 110 -87 93 -111 121 -128 145 -9 13 -17 21 -17
18 0 -4 -42 36 -92 89 -155 160 -438 433 -450 433 -4 0 -8 7 -8 15 0 8 -4 14
-8 13 -5 -2 -37 22 -73 54 -35 31 -77 67 -94 79 -16 13 -32 26 -35 29 -4 6
-29 25 -137 108 -23 17 -37 29 -110 92 -22 19 -58 50 -81 68 -23 19 -51 43
-64 54 -13 11 -48 39 -78 61 -30 23 -66 51 -80 64 -14 13 -28 23 -32 23 -3 0
-13 6 -20 13 -25 24 -198 147 -207 147 -5 0 -11 3 -13 8 -5 11 -107 82 -118
82 -6 0 -10 4 -10 8 0 5 -12 15 -27 23 -16 8 -37 22 -47 32 -11 9 -25 17 -32
17 -7 0 -14 3 -16 8 -1 4 -28 23 -58 42 -79 51 -93 59 -112 66 -10 3 -18 10
-18 14 0 5 -10 12 -22 16 -13 4 -25 10 -28 13 -10 12 -128 81 -139 81 -6 0
-11 4 -11 10 0 5 -11 12 -25 16 -14 3 -25 9 -25 13 0 3 -15 12 -32 20 -18 8
-35 17 -38 20 -5 6 -52 32 -130 73 -25 13 -47 25 -50 28 -3 4 -36 22 -75 40
-38 19 -72 38 -73 43 -2 4 -8 5 -13 1 -5 -3 -9 0 -9 6 0 6 -4 9 -9 6 -5 -4
-11 -2 -13 2 -3 8 -269 143 -285 145 -4 0 -14 7 -21 14 -8 7 -18 11 -23 8 -5
-4 -9 -1 -9 4 0 6 -3 10 -7 9 -5 -1 -39 14 -78 32 -38 19 -72 35 -75 36 -3 0
-32 13 -65 28 -58 27 -105 48 -115 51 -10 3 -85 38 -112 52 -16 8 -28 11 -28
7 0 -3 -6 -2 -12 4 -7 5 -49 24 -93 42 -44 17 -91 36 -105 42 -14 5 -25 9 -25
7 0 -1 -18 7 -40 18 -22 12 -44 22 -50 23 -12 3 -39 13 -87 33 -21 9 -38 13
-38 10 0 -3 -6 -1 -12 4 -7 5 -35 17 -63 27 -27 10 -59 22 -70 27 -12 6 -27
11 -35 13 -8 2 -22 6 -30 9 -49 18 -116 42 -122 43 -5 1 -10 3 -13 4 -3 1 -9
4 -15 5 -5 1 -12 4 -15 5 -3 1 -8 3 -12 4 -5 1 -13 4 -19 8 -6 4 -22 9 -36 12
-15 2 -36 9 -47 16 -12 6 -21 8 -21 4 0 -3 -7 -1 -15 6 -8 7 -15 9 -15 5 0 -4
-6 -3 -12 3 -7 6 -16 11 -21 11 -4 0 -33 8 -65 18 -31 9 -60 18 -64 19 -5 1
-10 3 -13 4 -3 1 -8 3 -12 4 -5 2 -28 8 -53 15 -25 7 -45 12 -45 12 0 -1 -16
5 -36 13 -20 8 -51 18 -69 21 -18 3 -40 10 -49 14 -9 5 -18 9 -21 9 -3 0 -25
5 -50 12 -25 7 -56 14 -69 17 -14 2 -29 7 -35 10 -5 4 -26 10 -45 14 -20 4
-88 21 -151 38 -63 16 -126 32 -140 35 -14 3 -36 8 -50 11 -37 10 -86 21 -170
40 -72 16 -84 19 -140 30 -14 3 -70 14 -125 25 -55 11 -111 22 -125 25 -14 3
-36 7 -50 10 -14 3 -36 7 -50 10 -14 3 -36 7 -50 10 -14 3 -41 7 -60 9 -19 3
-45 7 -56 10 -12 2 -39 7 -60 10 -49 8 -91 15 -129 21 -16 3 -48 7 -70 10 -22
3 -51 7 -64 10 -14 2 -61 9 -105 15 -45 6 -92 13 -106 15 -14 2 -47 6 -75 10
-51 5 -103 12 -165 20 -19 2 -64 7 -100 10 -36 4 -81 8 -100 11 -94 11 -413
36 -635 49 -241 14 -404 18 -803 19 -238 1 -434 1 -435 -1z"/>
</g>
</svg>
